<?xml version="1.0" encoding="UTF-8"?><svg id="Capa_1" xmlns="http://www.w3.org/2000/svg" viewBox="0 0 180 180"><defs><style>.cls-1{fill:#fff;}</style></defs><circle cx="90" cy="90" r="83.84"/><path class="cls-1" d="M133.54,80.34c-.85.09-1.72.13-2.58.13-9.45,0-18.26-4.76-23.44-12.67v43.14c0,17.61-14.28,31.89-31.89,31.89s-31.89-14.27-31.89-31.89,14.28-31.89,31.89-31.89h0c.67,0,1.32.06,1.97.1v15.71c-.65-.08-1.3-.2-1.97-.2-8.98,0-16.27,7.29-16.27,16.27s7.29,16.27,16.27,16.27,16.93-7.08,16.93-16.07l.15-73.27h15.03c1.42,13.48,12.29,24.01,25.8,24.99v17.46"/></svg>